<mxfile host="app.diagrams.net" modified="2024-01-05T10:09:16.850Z" agent="Mozilla/5.0 (Windows NT 10.0; Win64; x64) AppleWebKit/537.36 (KHTML, like Gecko) Chrome/120.0.0.0 Safari/537.36" etag="LckJ-9IY3gZXzazf2iFL" version="22.1.16" type="device">
  <diagram name="Страница — 1" id="A4jo8Qv-nYGHivCLYLoC">
    <mxGraphModel dx="2440" dy="1301" grid="1" gridSize="10" guides="1" tooltips="1" connect="1" arrows="1" fold="1" page="1" pageScale="1" pageWidth="4681" pageHeight="3300" math="0" shadow="0">
      <root>
        <mxCell id="0" />
        <mxCell id="1" parent="0" />
        <mxCell id="hWFCBj32-isqXcO6HmTl-27" value="Окно_авторизации" style="swimlane;fontStyle=0;childLayout=stackLayout;horizontal=1;startSize=30;horizontalStack=0;resizeParent=1;resizeParentMax=0;resizeLast=0;collapsible=1;marginBottom=0;whiteSpace=wrap;html=1;" parent="1" vertex="1">
          <mxGeometry x="150" y="490" width="140" height="90" as="geometry" />
        </mxCell>
        <mxCell id="hWFCBj32-isqXcO6HmTl-28" value="-Авторизовать пользователя" style="text;strokeColor=none;fillColor=none;align=left;verticalAlign=middle;spacingLeft=4;spacingRight=4;overflow=hidden;points=[[0,0.5],[1,0.5]];portConstraint=eastwest;rotatable=0;whiteSpace=wrap;html=1;" parent="hWFCBj32-isqXcO6HmTl-27" vertex="1">
          <mxGeometry y="30" width="140" height="30" as="geometry" />
        </mxCell>
        <mxCell id="hWFCBj32-isqXcO6HmTl-29" value="-Регистрация" style="text;strokeColor=none;fillColor=none;align=left;verticalAlign=middle;spacingLeft=4;spacingRight=4;overflow=hidden;points=[[0,0.5],[1,0.5]];portConstraint=eastwest;rotatable=0;whiteSpace=wrap;html=1;" parent="hWFCBj32-isqXcO6HmTl-27" vertex="1">
          <mxGeometry y="60" width="140" height="30" as="geometry" />
        </mxCell>
        <mxCell id="hWFCBj32-isqXcO6HmTl-30" value="Окно_регистрация" style="swimlane;fontStyle=0;childLayout=stackLayout;horizontal=1;startSize=30;horizontalStack=0;resizeParent=1;resizeParentMax=0;resizeLast=0;collapsible=1;marginBottom=0;whiteSpace=wrap;html=1;" parent="1" vertex="1">
          <mxGeometry x="480" y="480" width="140" height="120" as="geometry">
            <mxRectangle x="90" y="400" width="110" height="30" as="alternateBounds" />
          </mxGeometry>
        </mxCell>
        <mxCell id="hWFCBj32-isqXcO6HmTl-31" value="-Ввести данные" style="text;strokeColor=none;fillColor=none;align=left;verticalAlign=middle;spacingLeft=4;spacingRight=4;overflow=hidden;points=[[0,0.5],[1,0.5]];portConstraint=eastwest;rotatable=0;whiteSpace=wrap;html=1;" parent="hWFCBj32-isqXcO6HmTl-30" vertex="1">
          <mxGeometry y="30" width="140" height="30" as="geometry" />
        </mxCell>
        <mxCell id="hWFCBj32-isqXcO6HmTl-32" value="-Выйти в меню" style="text;strokeColor=none;fillColor=none;align=left;verticalAlign=middle;spacingLeft=4;spacingRight=4;overflow=hidden;points=[[0,0.5],[1,0.5]];portConstraint=eastwest;rotatable=0;whiteSpace=wrap;html=1;" parent="hWFCBj32-isqXcO6HmTl-30" vertex="1">
          <mxGeometry y="60" width="140" height="30" as="geometry" />
        </mxCell>
        <mxCell id="hWFCBj32-isqXcO6HmTl-33" value="-Зарегистрироваться" style="text;strokeColor=none;fillColor=none;align=left;verticalAlign=middle;spacingLeft=4;spacingRight=4;overflow=hidden;points=[[0,0.5],[1,0.5]];portConstraint=eastwest;rotatable=0;whiteSpace=wrap;html=1;" parent="hWFCBj32-isqXcO6HmTl-30" vertex="1">
          <mxGeometry y="90" width="140" height="30" as="geometry" />
        </mxCell>
        <mxCell id="hWFCBj32-isqXcO6HmTl-34" style="edgeStyle=orthogonalEdgeStyle;rounded=0;orthogonalLoop=1;jettySize=auto;html=1;exitX=1;exitY=0.5;exitDx=0;exitDy=0;entryX=-0.009;entryY=0.863;entryDx=0;entryDy=0;entryPerimeter=0;" parent="1" source="hWFCBj32-isqXcO6HmTl-27" target="hWFCBj32-isqXcO6HmTl-31" edge="1">
          <mxGeometry relative="1" as="geometry" />
        </mxCell>
        <mxCell id="hWFCBj32-isqXcO6HmTl-35" value="Нажата кнопка -Регистрация" style="text;html=1;align=center;verticalAlign=middle;resizable=0;points=[];autosize=1;strokeColor=none;fillColor=none;" parent="1" vertex="1">
          <mxGeometry x="290" y="508" width="180" height="30" as="geometry" />
        </mxCell>
        <mxCell id="hWFCBj32-isqXcO6HmTl-37" value="Нажата кнопка&lt;br&gt;-Выйти в меню или&lt;br&gt;-Клиент зарегистрирован" style="text;html=1;align=center;verticalAlign=middle;resizable=0;points=[];autosize=1;strokeColor=none;fillColor=none;" parent="1" vertex="1">
          <mxGeometry x="300" y="550" width="160" height="60" as="geometry" />
        </mxCell>
        <mxCell id="hWFCBj32-isqXcO6HmTl-38" value="" style="ellipse;html=1;shape=startState;fillColor=#000000;strokeColor=#ff0000;" parent="1" vertex="1">
          <mxGeometry x="35" y="520" width="30" height="30" as="geometry" />
        </mxCell>
        <mxCell id="hWFCBj32-isqXcO6HmTl-39" value="" style="edgeStyle=orthogonalEdgeStyle;html=1;verticalAlign=bottom;endArrow=open;endSize=8;strokeColor=#ff0000;rounded=0;entryX=-0.011;entryY=0.491;entryDx=0;entryDy=0;entryPerimeter=0;" parent="1" source="hWFCBj32-isqXcO6HmTl-38" target="hWFCBj32-isqXcO6HmTl-28" edge="1">
          <mxGeometry relative="1" as="geometry">
            <mxPoint x="50" y="708" as="targetPoint" />
          </mxGeometry>
        </mxCell>
        <mxCell id="hWFCBj32-isqXcO6HmTl-40" value="" style="endArrow=classic;html=1;rounded=0;exitX=-0.011;exitY=0.69;exitDx=0;exitDy=0;exitPerimeter=0;entryX=0.994;entryY=0.315;entryDx=0;entryDy=0;entryPerimeter=0;" parent="1" source="hWFCBj32-isqXcO6HmTl-32" target="hWFCBj32-isqXcO6HmTl-29" edge="1">
          <mxGeometry width="50" height="50" relative="1" as="geometry">
            <mxPoint x="310" y="490" as="sourcePoint" />
            <mxPoint x="360" y="440" as="targetPoint" />
          </mxGeometry>
        </mxCell>
        <mxCell id="hWFCBj32-isqXcO6HmTl-41" value="Окно_выбора&lt;br&gt;действий_клиента" style="swimlane;fontStyle=0;childLayout=stackLayout;horizontal=1;startSize=30;horizontalStack=0;resizeParent=1;resizeParentMax=0;resizeLast=0;collapsible=1;marginBottom=0;whiteSpace=wrap;html=1;" parent="1" vertex="1">
          <mxGeometry x="760" y="460" width="140" height="190" as="geometry" />
        </mxCell>
        <mxCell id="hWFCBj32-isqXcO6HmTl-42" value="-Просмотр списка выставочных товаров" style="text;strokeColor=none;fillColor=none;align=left;verticalAlign=middle;spacingLeft=4;spacingRight=4;overflow=hidden;points=[[0,0.5],[1,0.5]];portConstraint=eastwest;rotatable=0;whiteSpace=wrap;html=1;" parent="hWFCBj32-isqXcO6HmTl-41" vertex="1">
          <mxGeometry y="30" width="140" height="30" as="geometry" />
        </mxCell>
        <mxCell id="hWFCBj32-isqXcO6HmTl-43" value="-Просмотр списка товаров на скупку" style="text;strokeColor=none;fillColor=none;align=left;verticalAlign=middle;spacingLeft=4;spacingRight=4;overflow=hidden;points=[[0,0.5],[1,0.5]];portConstraint=eastwest;rotatable=0;whiteSpace=wrap;html=1;" parent="hWFCBj32-isqXcO6HmTl-41" vertex="1">
          <mxGeometry y="60" width="140" height="40" as="geometry" />
        </mxCell>
        <mxCell id="hWFCBj32-isqXcO6HmTl-44" value="-Редактировать личные данные" style="text;strokeColor=none;fillColor=none;align=left;verticalAlign=middle;spacingLeft=4;spacingRight=4;overflow=hidden;points=[[0,0.5],[1,0.5]];portConstraint=eastwest;rotatable=0;whiteSpace=wrap;html=1;" parent="hWFCBj32-isqXcO6HmTl-41" vertex="1">
          <mxGeometry y="100" width="140" height="30" as="geometry" />
        </mxCell>
        <mxCell id="hWFCBj32-isqXcO6HmTl-60" value="-История заказов" style="text;strokeColor=none;fillColor=none;align=left;verticalAlign=middle;spacingLeft=4;spacingRight=4;overflow=hidden;points=[[0,0.5],[1,0.5]];portConstraint=eastwest;rotatable=0;whiteSpace=wrap;html=1;" parent="hWFCBj32-isqXcO6HmTl-41" vertex="1">
          <mxGeometry y="130" width="140" height="30" as="geometry" />
        </mxCell>
        <mxCell id="hWFCBj32-isqXcO6HmTl-45" value="-Выйти" style="text;strokeColor=none;fillColor=none;align=left;verticalAlign=middle;spacingLeft=4;spacingRight=4;overflow=hidden;points=[[0,0.5],[1,0.5]];portConstraint=eastwest;rotatable=0;whiteSpace=wrap;html=1;" parent="hWFCBj32-isqXcO6HmTl-41" vertex="1">
          <mxGeometry y="160" width="140" height="30" as="geometry" />
        </mxCell>
        <mxCell id="hWFCBj32-isqXcO6HmTl-46" value="Окно_списка&lt;br&gt;товаров_на_продажу" style="swimlane;fontStyle=0;childLayout=stackLayout;horizontal=1;startSize=30;horizontalStack=0;resizeParent=1;resizeParentMax=0;resizeLast=0;collapsible=1;marginBottom=0;whiteSpace=wrap;html=1;" parent="1" vertex="1">
          <mxGeometry x="760" y="270" width="140" height="130" as="geometry" />
        </mxCell>
        <mxCell id="hWFCBj32-isqXcO6HmTl-47" value="-Список выставочных товаров" style="text;strokeColor=none;fillColor=none;align=left;verticalAlign=middle;spacingLeft=4;spacingRight=4;overflow=hidden;points=[[0,0.5],[1,0.5]];portConstraint=eastwest;rotatable=0;whiteSpace=wrap;html=1;" parent="hWFCBj32-isqXcO6HmTl-46" vertex="1">
          <mxGeometry y="30" width="140" height="40" as="geometry" />
        </mxCell>
        <mxCell id="hWFCBj32-isqXcO6HmTl-48" value="-Создать заявку" style="text;strokeColor=none;fillColor=none;align=left;verticalAlign=middle;spacingLeft=4;spacingRight=4;overflow=hidden;points=[[0,0.5],[1,0.5]];portConstraint=eastwest;rotatable=0;whiteSpace=wrap;html=1;" parent="hWFCBj32-isqXcO6HmTl-46" vertex="1">
          <mxGeometry y="70" width="140" height="30" as="geometry" />
        </mxCell>
        <mxCell id="hWFCBj32-isqXcO6HmTl-49" value="-Выйти" style="text;strokeColor=none;fillColor=none;align=left;verticalAlign=middle;spacingLeft=4;spacingRight=4;overflow=hidden;points=[[0,0.5],[1,0.5]];portConstraint=eastwest;rotatable=0;whiteSpace=wrap;html=1;" parent="hWFCBj32-isqXcO6HmTl-46" vertex="1">
          <mxGeometry y="100" width="140" height="30" as="geometry" />
        </mxCell>
        <mxCell id="hWFCBj32-isqXcO6HmTl-50" value="Окно_списка&lt;br&gt;товаров_на_скупку" style="swimlane;fontStyle=0;childLayout=stackLayout;horizontal=1;startSize=30;horizontalStack=0;resizeParent=1;resizeParentMax=0;resizeLast=0;collapsible=1;marginBottom=0;whiteSpace=wrap;html=1;" parent="1" vertex="1">
          <mxGeometry x="760" y="690" width="140" height="130" as="geometry" />
        </mxCell>
        <mxCell id="hWFCBj32-isqXcO6HmTl-51" value="-Список товаров на скупку" style="text;strokeColor=none;fillColor=none;align=left;verticalAlign=middle;spacingLeft=4;spacingRight=4;overflow=hidden;points=[[0,0.5],[1,0.5]];portConstraint=eastwest;rotatable=0;whiteSpace=wrap;html=1;" parent="hWFCBj32-isqXcO6HmTl-50" vertex="1">
          <mxGeometry y="30" width="140" height="40" as="geometry" />
        </mxCell>
        <mxCell id="hWFCBj32-isqXcO6HmTl-52" value="-Создать заявку" style="text;strokeColor=none;fillColor=none;align=left;verticalAlign=middle;spacingLeft=4;spacingRight=4;overflow=hidden;points=[[0,0.5],[1,0.5]];portConstraint=eastwest;rotatable=0;whiteSpace=wrap;html=1;" parent="hWFCBj32-isqXcO6HmTl-50" vertex="1">
          <mxGeometry y="70" width="140" height="30" as="geometry" />
        </mxCell>
        <mxCell id="hWFCBj32-isqXcO6HmTl-53" value="-Выйти" style="text;strokeColor=none;fillColor=none;align=left;verticalAlign=middle;spacingLeft=4;spacingRight=4;overflow=hidden;points=[[0,0.5],[1,0.5]];portConstraint=eastwest;rotatable=0;whiteSpace=wrap;html=1;" parent="hWFCBj32-isqXcO6HmTl-50" vertex="1">
          <mxGeometry y="100" width="140" height="30" as="geometry" />
        </mxCell>
        <mxCell id="hWFCBj32-isqXcO6HmTl-54" value="Окно&lt;br style=&quot;border-color: var(--border-color);&quot;&gt;создания_заявки" style="swimlane;fontStyle=0;childLayout=stackLayout;horizontal=1;startSize=30;horizontalStack=0;resizeParent=1;resizeParentMax=0;resizeLast=0;collapsible=1;marginBottom=0;whiteSpace=wrap;html=1;" parent="1" vertex="1">
          <mxGeometry x="1080" y="240" width="140" height="190" as="geometry" />
        </mxCell>
        <mxCell id="hWFCBj32-isqXcO6HmTl-55" value="-Данные пользователя" style="text;strokeColor=none;fillColor=none;align=left;verticalAlign=middle;spacingLeft=4;spacingRight=4;overflow=hidden;points=[[0,0.5],[1,0.5]];portConstraint=eastwest;rotatable=0;whiteSpace=wrap;html=1;" parent="hWFCBj32-isqXcO6HmTl-54" vertex="1">
          <mxGeometry y="30" width="140" height="30" as="geometry" />
        </mxCell>
        <mxCell id="hWFCBj32-isqXcO6HmTl-56" value="-Параметры товара" style="text;strokeColor=none;fillColor=none;align=left;verticalAlign=middle;spacingLeft=4;spacingRight=4;overflow=hidden;points=[[0,0.5],[1,0.5]];portConstraint=eastwest;rotatable=0;whiteSpace=wrap;html=1;" parent="hWFCBj32-isqXcO6HmTl-54" vertex="1">
          <mxGeometry y="60" width="140" height="30" as="geometry" />
        </mxCell>
        <mxCell id="hWFCBj32-isqXcO6HmTl-57" value="-Итоговая сумма с учетом комиссии" style="text;strokeColor=none;fillColor=none;align=left;verticalAlign=middle;spacingLeft=4;spacingRight=4;overflow=hidden;points=[[0,0.5],[1,0.5]];portConstraint=eastwest;rotatable=0;whiteSpace=wrap;html=1;" parent="hWFCBj32-isqXcO6HmTl-54" vertex="1">
          <mxGeometry y="90" width="140" height="40" as="geometry" />
        </mxCell>
        <mxCell id="hWFCBj32-isqXcO6HmTl-58" value="-Создать" style="text;strokeColor=none;fillColor=none;align=left;verticalAlign=middle;spacingLeft=4;spacingRight=4;overflow=hidden;points=[[0,0.5],[1,0.5]];portConstraint=eastwest;rotatable=0;whiteSpace=wrap;html=1;" parent="hWFCBj32-isqXcO6HmTl-54" vertex="1">
          <mxGeometry y="130" width="140" height="30" as="geometry" />
        </mxCell>
        <mxCell id="hWFCBj32-isqXcO6HmTl-59" value="-Выйти" style="text;strokeColor=none;fillColor=none;align=left;verticalAlign=middle;spacingLeft=4;spacingRight=4;overflow=hidden;points=[[0,0.5],[1,0.5]];portConstraint=eastwest;rotatable=0;whiteSpace=wrap;html=1;" parent="hWFCBj32-isqXcO6HmTl-54" vertex="1">
          <mxGeometry y="160" width="140" height="30" as="geometry" />
        </mxCell>
        <mxCell id="hWFCBj32-isqXcO6HmTl-61" value="Окно&lt;br style=&quot;border-color: var(--border-color);&quot;&gt;создания_заявки" style="swimlane;fontStyle=0;childLayout=stackLayout;horizontal=1;startSize=30;horizontalStack=0;resizeParent=1;resizeParentMax=0;resizeLast=0;collapsible=1;marginBottom=0;whiteSpace=wrap;html=1;" parent="1" vertex="1">
          <mxGeometry x="1080" y="660" width="140" height="190" as="geometry" />
        </mxCell>
        <mxCell id="hWFCBj32-isqXcO6HmTl-62" value="-Данные пользователя" style="text;strokeColor=none;fillColor=none;align=left;verticalAlign=middle;spacingLeft=4;spacingRight=4;overflow=hidden;points=[[0,0.5],[1,0.5]];portConstraint=eastwest;rotatable=0;whiteSpace=wrap;html=1;" parent="hWFCBj32-isqXcO6HmTl-61" vertex="1">
          <mxGeometry y="30" width="140" height="30" as="geometry" />
        </mxCell>
        <mxCell id="hWFCBj32-isqXcO6HmTl-63" value="-Параметры товара" style="text;strokeColor=none;fillColor=none;align=left;verticalAlign=middle;spacingLeft=4;spacingRight=4;overflow=hidden;points=[[0,0.5],[1,0.5]];portConstraint=eastwest;rotatable=0;whiteSpace=wrap;html=1;" parent="hWFCBj32-isqXcO6HmTl-61" vertex="1">
          <mxGeometry y="60" width="140" height="30" as="geometry" />
        </mxCell>
        <mxCell id="hWFCBj32-isqXcO6HmTl-64" value="-Итоговая сумма с учетом комиссии" style="text;strokeColor=none;fillColor=none;align=left;verticalAlign=middle;spacingLeft=4;spacingRight=4;overflow=hidden;points=[[0,0.5],[1,0.5]];portConstraint=eastwest;rotatable=0;whiteSpace=wrap;html=1;" parent="hWFCBj32-isqXcO6HmTl-61" vertex="1">
          <mxGeometry y="90" width="140" height="40" as="geometry" />
        </mxCell>
        <mxCell id="hWFCBj32-isqXcO6HmTl-65" value="-Создать" style="text;strokeColor=none;fillColor=none;align=left;verticalAlign=middle;spacingLeft=4;spacingRight=4;overflow=hidden;points=[[0,0.5],[1,0.5]];portConstraint=eastwest;rotatable=0;whiteSpace=wrap;html=1;" parent="hWFCBj32-isqXcO6HmTl-61" vertex="1">
          <mxGeometry y="130" width="140" height="30" as="geometry" />
        </mxCell>
        <mxCell id="hWFCBj32-isqXcO6HmTl-66" value="-Выйти" style="text;strokeColor=none;fillColor=none;align=left;verticalAlign=middle;spacingLeft=4;spacingRight=4;overflow=hidden;points=[[0,0.5],[1,0.5]];portConstraint=eastwest;rotatable=0;whiteSpace=wrap;html=1;" parent="hWFCBj32-isqXcO6HmTl-61" vertex="1">
          <mxGeometry y="160" width="140" height="30" as="geometry" />
        </mxCell>
        <mxCell id="RK78oddv9R4-cwuxYW8R-1" value="" style="endArrow=classic;html=1;rounded=0;entryX=-0.001;entryY=0.447;entryDx=0;entryDy=0;entryPerimeter=0;exitX=0.992;exitY=0.294;exitDx=0;exitDy=0;exitPerimeter=0;" edge="1" parent="1" source="hWFCBj32-isqXcO6HmTl-48" target="hWFCBj32-isqXcO6HmTl-57">
          <mxGeometry width="50" height="50" relative="1" as="geometry">
            <mxPoint x="938.1799999999998" y="349.9999999999999" as="sourcePoint" />
            <mxPoint x="1080" y="350.01999999999987" as="targetPoint" />
          </mxGeometry>
        </mxCell>
        <mxCell id="RK78oddv9R4-cwuxYW8R-2" value="" style="endArrow=classic;html=1;rounded=0;entryX=0.011;entryY=-0.029;entryDx=0;entryDy=0;entryPerimeter=0;exitX=-0.001;exitY=0.32;exitDx=0;exitDy=0;exitPerimeter=0;" edge="1" parent="1" source="hWFCBj32-isqXcO6HmTl-58">
          <mxGeometry width="50" height="50" relative="1" as="geometry">
            <mxPoint x="1042" y="380" as="sourcePoint" />
            <mxPoint x="900" y="380" as="targetPoint" />
          </mxGeometry>
        </mxCell>
        <mxCell id="RK78oddv9R4-cwuxYW8R-3" value="" style="endArrow=classic;html=1;rounded=0;exitX=0.75;exitY=0;exitDx=0;exitDy=0;entryX=-0.008;entryY=0.039;entryDx=0;entryDy=0;entryPerimeter=0;" edge="1" parent="1" source="hWFCBj32-isqXcO6HmTl-27" target="hWFCBj32-isqXcO6HmTl-43">
          <mxGeometry width="50" height="50" relative="1" as="geometry">
            <mxPoint x="610" y="590" as="sourcePoint" />
            <mxPoint x="660" y="540" as="targetPoint" />
            <Array as="points">
              <mxPoint x="255" y="440" />
              <mxPoint x="660" y="440" />
              <mxPoint x="660" y="520" />
            </Array>
          </mxGeometry>
        </mxCell>
        <mxCell id="RK78oddv9R4-cwuxYW8R-4" value="" style="endArrow=classic;html=1;rounded=0;exitX=0;exitY=0.5;exitDx=0;exitDy=0;entryX=0.738;entryY=1.173;entryDx=0;entryDy=0;entryPerimeter=0;" edge="1" parent="1" source="hWFCBj32-isqXcO6HmTl-44" target="hWFCBj32-isqXcO6HmTl-29">
          <mxGeometry width="50" height="50" relative="1" as="geometry">
            <mxPoint x="610" y="590" as="sourcePoint" />
            <mxPoint x="660" y="540" as="targetPoint" />
            <Array as="points">
              <mxPoint x="660" y="575" />
              <mxPoint x="660" y="640" />
              <mxPoint x="253" y="640" />
            </Array>
          </mxGeometry>
        </mxCell>
        <mxCell id="RK78oddv9R4-cwuxYW8R-5" value="Клиент авторизован" style="text;html=1;align=center;verticalAlign=middle;resizable=0;points=[];autosize=1;strokeColor=none;fillColor=none;" vertex="1" parent="1">
          <mxGeometry x="370" y="410" width="140" height="30" as="geometry" />
        </mxCell>
        <mxCell id="RK78oddv9R4-cwuxYW8R-6" value="Нажата кнопка&amp;nbsp;&lt;br&gt;-Выйти" style="text;html=1;align=center;verticalAlign=middle;resizable=0;points=[];autosize=1;strokeColor=none;fillColor=none;" vertex="1" parent="1">
          <mxGeometry x="385" y="640" width="110" height="40" as="geometry" />
        </mxCell>
        <mxCell id="RK78oddv9R4-cwuxYW8R-7" value="" style="endArrow=classic;html=1;rounded=0;entryX=0.011;entryY=-0.029;entryDx=0;entryDy=0;entryPerimeter=0;exitX=-0.028;exitY=0.294;exitDx=0;exitDy=0;exitPerimeter=0;" edge="1" parent="1">
          <mxGeometry width="50" height="50" relative="1" as="geometry">
            <mxPoint x="1076" y="790" as="sourcePoint" />
            <mxPoint x="900" y="791" as="targetPoint" />
          </mxGeometry>
        </mxCell>
        <mxCell id="RK78oddv9R4-cwuxYW8R-8" value="" style="endArrow=classic;html=1;rounded=0;entryX=0.011;entryY=-0.029;entryDx=0;entryDy=0;entryPerimeter=0;exitX=0.992;exitY=0.294;exitDx=0;exitDy=0;exitPerimeter=0;" edge="1" parent="1">
          <mxGeometry width="50" height="50" relative="1" as="geometry">
            <mxPoint x="900" y="760" as="sourcePoint" />
            <mxPoint x="1081" y="761.0199999999999" as="targetPoint" />
          </mxGeometry>
        </mxCell>
        <mxCell id="RK78oddv9R4-cwuxYW8R-9" value="" style="endArrow=classic;html=1;rounded=0;exitX=0.75;exitY=0;exitDx=0;exitDy=0;entryX=0.751;entryY=1.046;entryDx=0;entryDy=0;entryPerimeter=0;" edge="1" parent="1" source="hWFCBj32-isqXcO6HmTl-50" target="hWFCBj32-isqXcO6HmTl-45">
          <mxGeometry width="50" height="50" relative="1" as="geometry">
            <mxPoint x="610" y="590" as="sourcePoint" />
            <mxPoint x="660" y="540" as="targetPoint" />
          </mxGeometry>
        </mxCell>
        <mxCell id="RK78oddv9R4-cwuxYW8R-10" value="" style="endArrow=classic;html=1;rounded=0;exitX=0.297;exitY=0.988;exitDx=0;exitDy=0;entryX=0.745;entryY=1.082;entryDx=0;entryDy=0;entryPerimeter=0;exitPerimeter=0;" edge="1" parent="1" source="hWFCBj32-isqXcO6HmTl-45">
          <mxGeometry width="50" height="50" relative="1" as="geometry">
            <mxPoint x="800" y="652" as="sourcePoint" />
            <mxPoint x="801" y="690" as="targetPoint" />
          </mxGeometry>
        </mxCell>
        <mxCell id="RK78oddv9R4-cwuxYW8R-11" value="" style="endArrow=classic;html=1;rounded=0;entryX=0.752;entryY=1.069;entryDx=0;entryDy=0;entryPerimeter=0;exitX=0.75;exitY=0;exitDx=0;exitDy=0;" edge="1" parent="1">
          <mxGeometry width="50" height="50" relative="1" as="geometry">
            <mxPoint x="800" y="460" as="sourcePoint" />
            <mxPoint x="800.2799999999997" y="402.06999999999994" as="targetPoint" />
          </mxGeometry>
        </mxCell>
        <mxCell id="RK78oddv9R4-cwuxYW8R-12" value="" style="endArrow=classic;html=1;rounded=0;entryX=0.752;entryY=1.069;entryDx=0;entryDy=0;entryPerimeter=0;exitX=0.75;exitY=0;exitDx=0;exitDy=0;" edge="1" parent="1">
          <mxGeometry width="50" height="50" relative="1" as="geometry">
            <mxPoint x="860" y="402" as="sourcePoint" />
            <mxPoint x="860" y="460" as="targetPoint" />
          </mxGeometry>
        </mxCell>
        <mxCell id="RK78oddv9R4-cwuxYW8R-14" value="Нажата кнопка&amp;nbsp;&lt;br&gt;-Выйти&lt;br&gt;или после создания завки" style="text;html=1;align=center;verticalAlign=middle;resizable=0;points=[];autosize=1;strokeColor=none;fillColor=none;" vertex="1" parent="1">
          <mxGeometry x="900" y="370" width="170" height="60" as="geometry" />
        </mxCell>
        <mxCell id="RK78oddv9R4-cwuxYW8R-15" value="Нажата кнопка&amp;nbsp;&lt;br&gt;-Выйти" style="text;html=1;align=center;verticalAlign=middle;resizable=0;points=[];autosize=1;strokeColor=none;fillColor=none;" vertex="1" parent="1">
          <mxGeometry x="850" y="420" width="110" height="40" as="geometry" />
        </mxCell>
        <mxCell id="RK78oddv9R4-cwuxYW8R-16" value="Нажата кнопка&amp;nbsp;&lt;br&gt;-Выйти" style="text;html=1;align=center;verticalAlign=middle;resizable=0;points=[];autosize=1;strokeColor=none;fillColor=none;" vertex="1" parent="1">
          <mxGeometry x="860" y="650" width="110" height="40" as="geometry" />
        </mxCell>
        <mxCell id="RK78oddv9R4-cwuxYW8R-17" value="Окно&lt;br&gt;история_заявок" style="swimlane;fontStyle=0;childLayout=stackLayout;horizontal=1;startSize=30;horizontalStack=0;resizeParent=1;resizeParentMax=0;resizeLast=0;collapsible=1;marginBottom=0;whiteSpace=wrap;html=1;" vertex="1" parent="1">
          <mxGeometry x="990" y="495" width="140" height="120" as="geometry" />
        </mxCell>
        <mxCell id="RK78oddv9R4-cwuxYW8R-18" value="-Список заявок" style="text;strokeColor=none;fillColor=none;align=left;verticalAlign=middle;spacingLeft=4;spacingRight=4;overflow=hidden;points=[[0,0.5],[1,0.5]];portConstraint=eastwest;rotatable=0;whiteSpace=wrap;html=1;" vertex="1" parent="RK78oddv9R4-cwuxYW8R-17">
          <mxGeometry y="30" width="140" height="30" as="geometry" />
        </mxCell>
        <mxCell id="RK78oddv9R4-cwuxYW8R-19" value="-Поиск" style="text;strokeColor=none;fillColor=none;align=left;verticalAlign=middle;spacingLeft=4;spacingRight=4;overflow=hidden;points=[[0,0.5],[1,0.5]];portConstraint=eastwest;rotatable=0;whiteSpace=wrap;html=1;" vertex="1" parent="RK78oddv9R4-cwuxYW8R-17">
          <mxGeometry y="60" width="140" height="30" as="geometry" />
        </mxCell>
        <mxCell id="RK78oddv9R4-cwuxYW8R-20" value="-Выйти" style="text;strokeColor=none;fillColor=none;align=left;verticalAlign=middle;spacingLeft=4;spacingRight=4;overflow=hidden;points=[[0,0.5],[1,0.5]];portConstraint=eastwest;rotatable=0;whiteSpace=wrap;html=1;" vertex="1" parent="RK78oddv9R4-cwuxYW8R-17">
          <mxGeometry y="90" width="140" height="30" as="geometry" />
        </mxCell>
        <mxCell id="RK78oddv9R4-cwuxYW8R-21" value="" style="endArrow=classic;html=1;rounded=0;entryX=0;entryY=0.5;entryDx=0;entryDy=0;" edge="1" parent="1">
          <mxGeometry width="50" height="50" relative="1" as="geometry">
            <mxPoint x="990" y="570" as="sourcePoint" />
            <mxPoint x="900" y="570" as="targetPoint" />
          </mxGeometry>
        </mxCell>
        <mxCell id="RK78oddv9R4-cwuxYW8R-22" value="" style="endArrow=classic;html=1;rounded=0;entryX=0;entryY=0.5;entryDx=0;entryDy=0;" edge="1" parent="1">
          <mxGeometry width="50" height="50" relative="1" as="geometry">
            <mxPoint x="900" y="520" as="sourcePoint" />
            <mxPoint x="990" y="520" as="targetPoint" />
          </mxGeometry>
        </mxCell>
        <mxCell id="RK78oddv9R4-cwuxYW8R-23" value="Нажата кнопка&amp;nbsp;&lt;br&gt;-Выйти" style="text;html=1;align=center;verticalAlign=middle;resizable=0;points=[];autosize=1;strokeColor=none;fillColor=none;" vertex="1" parent="1">
          <mxGeometry x="890" y="570" width="110" height="40" as="geometry" />
        </mxCell>
        <mxCell id="RK78oddv9R4-cwuxYW8R-24" value="Нажата кнопка&amp;nbsp;&lt;br&gt;-Выйти&lt;br&gt;или после создания завки" style="text;html=1;align=center;verticalAlign=middle;resizable=0;points=[];autosize=1;strokeColor=none;fillColor=none;" vertex="1" parent="1">
          <mxGeometry x="910" y="790" width="170" height="60" as="geometry" />
        </mxCell>
        <mxCell id="RK78oddv9R4-cwuxYW8R-29" value="Окно_Редактирование личных_данных" style="swimlane;fontStyle=0;childLayout=stackLayout;horizontal=1;startSize=30;horizontalStack=0;resizeParent=1;resizeParentMax=0;resizeLast=0;collapsible=1;marginBottom=0;whiteSpace=wrap;html=1;" vertex="1" parent="1">
          <mxGeometry x="1245" y="490" width="140" height="120" as="geometry">
            <mxRectangle x="650" y="470" width="220" height="30" as="alternateBounds" />
          </mxGeometry>
        </mxCell>
        <mxCell id="RK78oddv9R4-cwuxYW8R-30" value="-Изменение данных" style="text;strokeColor=none;fillColor=none;align=left;verticalAlign=middle;spacingLeft=4;spacingRight=4;overflow=hidden;points=[[0,0.5],[1,0.5]];portConstraint=eastwest;rotatable=0;whiteSpace=wrap;html=1;" vertex="1" parent="RK78oddv9R4-cwuxYW8R-29">
          <mxGeometry y="30" width="140" height="30" as="geometry" />
        </mxCell>
        <mxCell id="RK78oddv9R4-cwuxYW8R-31" value="-Принять изменения" style="text;strokeColor=none;fillColor=none;align=left;verticalAlign=middle;spacingLeft=4;spacingRight=4;overflow=hidden;points=[[0,0.5],[1,0.5]];portConstraint=eastwest;rotatable=0;whiteSpace=wrap;html=1;" vertex="1" parent="RK78oddv9R4-cwuxYW8R-29">
          <mxGeometry y="60" width="140" height="30" as="geometry" />
        </mxCell>
        <mxCell id="RK78oddv9R4-cwuxYW8R-32" value="-Выйти" style="text;strokeColor=none;fillColor=none;align=left;verticalAlign=middle;spacingLeft=4;spacingRight=4;overflow=hidden;points=[[0,0.5],[1,0.5]];portConstraint=eastwest;rotatable=0;whiteSpace=wrap;html=1;" vertex="1" parent="RK78oddv9R4-cwuxYW8R-29">
          <mxGeometry y="90" width="140" height="30" as="geometry" />
        </mxCell>
        <mxCell id="RK78oddv9R4-cwuxYW8R-33" value="Нажата кнопка&amp;nbsp;&lt;br&gt;-Редактирование личных данных" style="text;html=1;align=center;verticalAlign=middle;resizable=0;points=[];autosize=1;strokeColor=none;fillColor=none;" vertex="1" parent="1">
          <mxGeometry x="930" y="450" width="210" height="40" as="geometry" />
        </mxCell>
        <mxCell id="RK78oddv9R4-cwuxYW8R-34" value="Нажата кнопка&lt;br&gt;-Выйти&lt;br&gt;" style="text;html=1;align=center;verticalAlign=middle;resizable=0;points=[];autosize=1;strokeColor=none;fillColor=none;" vertex="1" parent="1">
          <mxGeometry x="970" y="640" width="110" height="40" as="geometry" />
        </mxCell>
        <mxCell id="RK78oddv9R4-cwuxYW8R-35" value="" style="endArrow=classic;html=1;rounded=0;exitX=0;exitY=0.5;exitDx=0;exitDy=0;entryX=1.039;entryY=-0.045;entryDx=0;entryDy=0;entryPerimeter=0;" edge="1" parent="1" source="RK78oddv9R4-cwuxYW8R-32" target="hWFCBj32-isqXcO6HmTl-45">
          <mxGeometry width="50" height="50" relative="1" as="geometry">
            <mxPoint x="580" y="630" as="sourcePoint" />
            <mxPoint x="630" y="580" as="targetPoint" />
            <Array as="points">
              <mxPoint x="1180" y="595" />
              <mxPoint x="1180" y="640" />
              <mxPoint x="920" y="640" />
              <mxPoint x="920" y="620" />
            </Array>
          </mxGeometry>
        </mxCell>
        <mxCell id="RK78oddv9R4-cwuxYW8R-36" value="" style="endArrow=classic;html=1;rounded=0;exitX=1.008;exitY=-0.204;exitDx=0;exitDy=0;exitPerimeter=0;" edge="1" parent="1" source="hWFCBj32-isqXcO6HmTl-42">
          <mxGeometry width="50" height="50" relative="1" as="geometry">
            <mxPoint x="950" y="490" as="sourcePoint" />
            <mxPoint x="1240" y="530" as="targetPoint" />
            <Array as="points">
              <mxPoint x="1180" y="484" />
              <mxPoint x="1180" y="530" />
            </Array>
          </mxGeometry>
        </mxCell>
        <mxCell id="RK78oddv9R4-cwuxYW8R-38" value="Нажата кнопка&lt;br style=&quot;font-size: 11px;&quot;&gt;-История заказов" style="text;html=1;align=center;verticalAlign=middle;resizable=0;points=[];autosize=1;strokeColor=none;fillColor=none;fontSize=11;" vertex="1" parent="1">
          <mxGeometry x="890" y="480" width="110" height="40" as="geometry" />
        </mxCell>
        <mxCell id="RK78oddv9R4-cwuxYW8R-39" value="Нажата кнопка&amp;nbsp;&lt;br&gt;-Создать заявку" style="text;html=1;align=center;verticalAlign=middle;resizable=0;points=[];autosize=1;strokeColor=none;fillColor=none;" vertex="1" parent="1">
          <mxGeometry x="940" y="310" width="110" height="40" as="geometry" />
        </mxCell>
        <mxCell id="RK78oddv9R4-cwuxYW8R-40" value="Нажата кнопка&amp;nbsp;&lt;br&gt;-Создать заявку" style="text;html=1;align=center;verticalAlign=middle;resizable=0;points=[];autosize=1;strokeColor=none;fillColor=none;" vertex="1" parent="1">
          <mxGeometry x="940" y="720" width="110" height="40" as="geometry" />
        </mxCell>
        <mxCell id="RK78oddv9R4-cwuxYW8R-42" value="Нажата кнопка&amp;nbsp;&lt;br&gt;-Просмотр списка товаров&lt;br&gt;на скупку" style="text;html=1;align=center;verticalAlign=middle;resizable=0;points=[];autosize=1;strokeColor=none;fillColor=none;" vertex="1" parent="1">
          <mxGeometry x="640" y="640" width="170" height="60" as="geometry" />
        </mxCell>
        <mxCell id="RK78oddv9R4-cwuxYW8R-43" value="Нажата кнопка&amp;nbsp;&lt;br&gt;-Просмотр списка &lt;br&gt;выставочных товаров" style="text;html=1;align=center;verticalAlign=middle;resizable=0;points=[];autosize=1;strokeColor=none;fillColor=none;" vertex="1" parent="1">
          <mxGeometry x="660" y="400" width="140" height="60" as="geometry" />
        </mxCell>
        <mxCell id="RK78oddv9R4-cwuxYW8R-44" value="" style="endArrow=none;html=1;rounded=0;entryX=1;entryY=0.5;entryDx=0;entryDy=0;exitX=1.008;exitY=0.225;exitDx=0;exitDy=0;exitPerimeter=0;" edge="1" parent="1" source="hWFCBj32-isqXcO6HmTl-64" target="hWFCBj32-isqXcO6HmTl-57">
          <mxGeometry width="50" height="50" relative="1" as="geometry">
            <mxPoint x="720" y="700" as="sourcePoint" />
            <mxPoint x="770" y="650" as="targetPoint" />
            <Array as="points">
              <mxPoint x="1450" y="760" />
              <mxPoint x="1450" y="600" />
              <mxPoint x="1450" y="350" />
            </Array>
          </mxGeometry>
        </mxCell>
        <mxCell id="RK78oddv9R4-cwuxYW8R-45" value="" style="endArrow=classic;html=1;rounded=0;entryX=0.017;entryY=0.006;entryDx=0;entryDy=0;entryPerimeter=0;" edge="1" parent="1" target="hWFCBj32-isqXcO6HmTl-45">
          <mxGeometry width="50" height="50" relative="1" as="geometry">
            <mxPoint x="1450" y="560" as="sourcePoint" />
            <mxPoint x="860" y="650" as="targetPoint" />
            <Array as="points">
              <mxPoint x="1520" y="560" />
              <mxPoint x="1520" y="880" />
              <mxPoint x="640" y="880" />
              <mxPoint x="640" y="650" />
              <mxPoint x="720" y="650" />
              <mxPoint x="720" y="620" />
            </Array>
          </mxGeometry>
        </mxCell>
        <mxCell id="RK78oddv9R4-cwuxYW8R-46" value="&lt;h5 style=&quot;font-size: 12px;&quot;&gt;Заявка создана и отправлена&lt;br style=&quot;font-size: 12px;&quot;&gt;в БД неоформленные_заявки&lt;/h5&gt;" style="text;html=1;align=center;verticalAlign=middle;resizable=0;points=[];autosize=1;strokeColor=none;fillColor=none;fontSize=12;" vertex="1" parent="1">
          <mxGeometry x="950" y="860" width="200" height="80" as="geometry" />
        </mxCell>
      </root>
    </mxGraphModel>
  </diagram>
</mxfile>
